<?xml version="1.0" ?>
<!-- Uploaded to: SVG Repo, www.svgrepo.com, Generator: SVG Repo Mixer Tools -->
<svg fill="#000000" width="800px" height="800px" viewBox="0 0 32 32" xmlns="http://www.w3.org/2000/svg">
<title/>
<g data-name="Layer 21" id="Layer_21">
<path d="M29,13a1,1,0,0,0-1,1v1.51A2.53,2.53,0,0,0,26.5,15H11.72A2,2,0,0,0,12,14V13a2,2,0,0,0-2-2H5a2,2,0,0,0-1,.28V10a1,1,0,0,0-2,0V29a1,1,0,0,0,2,0V21H28v8a1,1,0,0,0,2,0V14A1,1,0,0,0,29,13ZM5,13h5v1H5Zm21.5,5H5.5a.5.5,0,0,1,0-1h21a.5.5,0,0,1,0,1Z"/>
<path d="M18,8h1V9a1,1,0,0,0,2,0V8h1a1,1,0,0,0,0-2H21V5a1,1,0,0,0-2,0V6H18a1,1,0,0,0,0,2Z"/>
<path d="M20,12a5,5,0,1,0-5-5A5,5,0,0,0,20,12Zm0-8a3,3,0,1,1-3,3A3,3,0,0,1,20,4Z"/>
</g>
</svg>